<?xml version="1.0" encoding="UTF-8"?>
<svg version="1.1" xmlns="http://www.w3.org/2000/svg" width="105" height="107">
<path d="M0 0 C0 0.66 0 1.32 0 2 C1.485 2.495 1.485 2.495 3 3 C12.86034407 14.35575171 17.55313609 27.80207379 17.2421875 42.67578125 C16.32430119 55.27451108 11.00958191 67.99041809 2 77 C1.34 77 0.68 77 0 77 C0 77.66 0 78.32 0 79 C-11.23785869 88.87042014 -26.12107913 93.87697413 -41 93 C-43.67479186 92.54391714 -46.19787614 92.04632671 -48.8125 91.375 C-49.5031958 91.1996875 -50.1938916 91.024375 -50.90551758 90.84375 C-59.00549099 88.64638176 -66.90565599 84.88419421 -73 79 C-73 78.34 -73 77.68 -73 77 C-73.5878125 76.77441406 -74.175625 76.54882812 -74.78125 76.31640625 C-77.64157616 74.61934654 -78.75465544 72.75781814 -80.5 69.9375 C-81.0671875 69.03902344 -81.634375 68.14054687 -82.21875 67.21484375 C-82.8065625 66.15394531 -83.394375 65.09304687 -84 64 C-84.35956787 63.39349609 -84.71913574 62.78699219 -85.08959961 62.16210938 C-88.56270671 55.5832803 -88.6451065 48.96707198 -88.57641602 41.68066406 C-88.56256367 39.63440469 -88.59668799 37.59274934 -88.63476562 35.546875 C-88.70295346 24.18960184 -85.54480431 15.83665258 -78.8125 6.8125 C-78.13832031 5.89082031 -77.46414062 4.96914063 -76.76953125 4.01953125 C-75.89361328 3.01986328 -75.89361328 3.01986328 -75 2 C-74.34 2 -73.68 2 -73 2 C-73 1.34 -73 0.68 -73 0 C-51.77080169 -18.6459994 -21.33891537 -17.89559039 0 0 Z " fill="#FBFBFB" transform="translate(88,14)"/>
<path d="M0 0 C0 0.66 0 1.32 0 2 C1.485 2.495 1.485 2.495 3 3 C12.86034407 14.35575171 17.55313609 27.80207379 17.2421875 42.67578125 C16.32430119 55.27451108 11.00958191 67.99041809 2 77 C1.34 77 0.68 77 0 77 C0 77.66 0 78.32 0 79 C-11.23785869 88.87042014 -26.12107913 93.87697413 -41 93 C-43.67479186 92.54391714 -46.19787614 92.04632671 -48.8125 91.375 C-49.5031958 91.1996875 -50.1938916 91.024375 -50.90551758 90.84375 C-59.00549099 88.64638176 -66.90565599 84.88419421 -73 79 C-73 78.34 -73 77.68 -73 77 C-73.5878125 76.77441406 -74.175625 76.54882812 -74.78125 76.31640625 C-77.64157616 74.61934654 -78.75465544 72.75781814 -80.5 69.9375 C-81.0671875 69.03902344 -81.634375 68.14054687 -82.21875 67.21484375 C-82.8065625 66.15394531 -83.394375 65.09304687 -84 64 C-84.35956787 63.39349609 -84.71913574 62.78699219 -85.08959961 62.16210938 C-88.56270671 55.5832803 -88.6451065 48.96707198 -88.57641602 41.68066406 C-88.56256367 39.63440469 -88.59668799 37.59274934 -88.63476562 35.546875 C-88.70295346 24.18960184 -85.54480431 15.83665258 -78.8125 6.8125 C-78.13832031 5.89082031 -77.46414062 4.96914063 -76.76953125 4.01953125 C-75.89361328 3.01986328 -75.89361328 3.01986328 -75 2 C-74.34 2 -73.68 2 -73 2 C-73 1.34 -73 0.68 -73 0 C-51.77080169 -18.6459994 -21.33891537 -17.89559039 0 0 Z M-72.375 11.75 C-80.7392036 23.1260053 -82.58849075 34.18513355 -81 48 C-78.09552172 61.3791393 -69.66850271 71.61042697 -58.42578125 78.97265625 C-48.5378262 84.82425109 -36.86618738 85.64381956 -25.69140625 83.30859375 C-19.03601424 81.28230242 -13.4264367 78.33707699 -8 74 C-6.98486328 73.20722656 -6.98486328 73.20722656 -5.94921875 72.3984375 C2.04202866 65.35372619 7.68261338 55.35813206 8.67578125 44.71484375 C9.13315725 34.69741252 8.27467241 25.74892331 3 17 C2.38318359 15.92105469 2.38318359 15.92105469 1.75390625 14.8203125 C-4.79177255 4.83669558 -16.4931114 -2.4208698 -28 -5 C-45.83216528 -7.16833952 -60.47215981 -2.14036885 -72.375 11.75 Z " fill="#050505" transform="translate(88,14)"/>
<path d="M0 0 C-3.56102306 3.65317523 -7.2748988 7.03639852 -11.1875 10.3125 C-11.75339844 10.78816406 -12.31929687 11.26382813 -12.90234375 11.75390625 C-26.88384046 23.46813322 -26.88384046 23.46813322 -33 27 C-31.29178179 22.09341578 -28.54249949 18.22045684 -25.50805664 14.03833008 C-23.64347077 11.44599336 -22.02117593 9.04423281 -20.63671875 6.15234375 C-16.41656191 -2.5216594 -8.39862796 -0.80794402 0 0 Z " fill="#101010" transform="translate(64,56)"/>
<path d="M0 0 C0 8.32010436 -8.63071473 18.2596047 -13.671875 24.69287109 C-16.6343112 27.62859069 -18.72625397 28.49756375 -22.84765625 28.6809082 C-26.03963216 28.41261712 -28.9166749 27.88563593 -32 27 C-28.5092474 23.42598175 -24.88897076 20.08956556 -21.0625 16.875 C-20.51053955 16.40924561 -19.9585791 15.94349121 -19.38989258 15.46362305 C-13.05183892 10.15096038 -6.53574133 5.06593443 0 0 Z " fill="#0E0E0E" transform="translate(71,24)"/>
</svg>
